<svg id="visual" viewBox="0 0 900 200" width="900" height="200" xmlns="http://www.w3.org/2000/svg" xmlns:xlink="http://www.w3.org/1999/xlink" version="1.1"><path d="M0 93L10 98C20 103 40 113 60 111.5C80 110 100 97 120 93.3C140 89.7 160 95.3 180 100.3C200 105.3 220 109.7 240 115.3C260 121 280 128 300 125C320 122 340 109 360 102C380 95 400 94 420 94.8C440 95.7 460 98.3 480 104.8C500 111.3 520 121.7 540 123C560 124.3 580 116.7 600 111.8C620 107 640 105 660 108.2C680 111.3 700 119.7 720 116.5C740 113.3 760 98.7 780 97C800 95.3 820 106.7 840 110.5C860 114.3 880 110.7 890 108.8L900 107L900 201L890 201C880 201 860 201 840 201C820 201 800 201 780 201C760 201 740 201 720 201C700 201 680 201 660 201C640 201 620 201 600 201C580 201 560 201 540 201C520 201 500 201 480 201C460 201 440 201 420 201C400 201 380 201 360 201C340 201 320 201 300 201C280 201 260 201 240 201C220 201 200 201 180 201C160 201 140 201 120 201C100 201 80 201 60 201C40 201 20 201 10 201L0 201Z" fill="#BBE1FA" stroke-linecap="round" stroke-linejoin="miter"></path></svg>