<svg id="visual" viewBox="0 0 900 200" width="900" height="200" xmlns="http://www.w3.org/2000/svg" xmlns:xlink="http://www.w3.org/1999/xlink" version="1.1"><path d="M0 61L8.8 57C17.7 53 35.3 45 53 44.5C70.7 44 88.3 51 106 53.2C123.7 55.3 141.3 52.7 159 49.5C176.7 46.3 194.3 42.7 212 40.3C229.7 38 247.3 37 265 39C282.7 41 300.3 46 318 49.8C335.7 53.7 353.3 56.3 371 56.5C388.7 56.7 406.3 54.3 423.8 51.5C441.3 48.7 458.7 45.3 476.2 44.5C493.7 43.7 511.3 45.3 529 48.3C546.7 51.3 564.3 55.7 582 56.8C599.7 58 617.3 56 635 52.5C652.7 49 670.3 44 688 42.5C705.7 41 723.3 43 741 45.8C758.7 48.7 776.3 52.3 794 51.2C811.7 50 829.3 44 847 43.3C864.7 42.7 882.3 47.3 891.2 49.7L900 52L900 0L891.2 0C882.3 0 864.7 0 847 0C829.3 0 811.7 0 794 0C776.3 0 758.7 0 741 0C723.3 0 705.7 0 688 0C670.3 0 652.7 0 635 0C617.3 0 599.7 0 582 0C564.3 0 546.7 0 529 0C511.3 0 493.7 0 476.2 0C458.7 0 441.3 0 423.8 0C406.3 0 388.7 0 371 0C353.3 0 335.7 0 318 0C300.3 0 282.7 0 265 0C247.3 0 229.7 0 212 0C194.3 0 176.7 0 159 0C141.3 0 123.7 0 106 0C88.3 0 70.7 0 53 0C35.3 0 17.7 0 8.8 0L0 0Z" fill="#BBE1FA" stroke-linecap="round" stroke-linejoin="miter"></path></svg>